# Blender v2.83.2 OBJ File: 'cg_final.blend'
# www.blender.org
mtllib ground.mtl
v 6.080013 0.210822 -0.491179
v 9.337578 0.210821 0.710436
v 9.337577 0.210822 -0.457917
v 6.431806 0.210822 -1.518165
v 0.552104 0.210822 -0.491179
v 0.552104 0.210822 -1.518165
v 5.632243 0.210822 -0.491179
v 5.984036 0.210822 -1.518165
v 0.104333 0.210822 -0.491179
v 0.104333 0.210822 -1.518165
vt 1.822669 -1.010803
vt 6.180322 -0.973091
vt 4.765133 1.007017
vt 0.876025 0.942210
vt -4.154772 -0.104202
vt 1.587574 -0.104203
vt 1.953015 2.035153
vt -4.154771 2.035154
vt 1.953015 2.035153
vt -4.154771 2.035154
vt -4.154772 -0.104202
vt 1.822669 -1.010803
vt 0.876025 0.942210
vt 1.587574 -0.104203
vn -0.0000 1.0000 0.0000
vn 0.0000 0.0000 1.0000
vn 0.0000 -1.0000 -0.0000
usemtl Road
s off
f 1/1/1 2/2/1 3/3/1 4/4/1
f 5/5/1 1/6/1 4/7/1 6/8/1
f 6/8/2 4/7/2 8/9/2 10/10/2
f 5/5/1 6/8/1 10/10/1 9/11/1
f 4/4/3 1/1/3 7/12/3 8/13/3
f 1/6/2 5/5/2 9/11/2 7/14/2
v 17.337784 0.205354 11.122089
v -3.359681 0.205354 11.122089
v -3.359681 0.205358 -9.379297
v 17.337784 0.205358 -9.379297
vt 0.972656 0.680176
vt 0.972656 0.680176
vt 0.972656 0.680176
vt 0.972656 0.680176
vn 0.0000 1.0000 0.0000
usemtl Floor
s off
f 11/15/4 14/16/4 13/17/4 12/18/4
