# Blender v2.83.2 OBJ File: 'cg_final.blend'
# www.blender.org
mtllib light.mtl
v 47.055618 42.819069 -67.362106
v 46.698219 42.287769 -68.247307
v 46.540318 42.207069 -66.618111
v 48.029118 42.328468 -67.292007
v 46.607616 41.117569 -66.665512
v 46.765518 41.198368 -68.294807
v 47.190319 40.640167 -67.457108
v 48.096519 41.238968 -67.339508
vt 0.166670 0.000000
vt 0.333330 0.333330
vt 0.000000 0.333330
vt 0.500000 0.000000
vt 0.666670 0.333330
vt 0.833330 0.000000
vt 1.000000 0.333330
vt 0.000000 0.666670
vt 0.333330 0.666670
vt 0.166670 1.000000
vt 0.666670 0.666670
vt 0.500000 1.000000
vt 1.000000 0.666670
vt 0.833330 1.000000
vn -0.7913 0.6097 -0.0465
vn -0.9808 0.1750 -0.0864
vn -0.9524 0.2949 -0.0777
vn 0.3982 0.7066 -0.5849
vn 0.5502 0.2998 -0.7794
vn 0.5221 0.4151 -0.7451
vn 0.2720 0.6422 0.7167
vn 0.3878 0.2167 0.8959
vn 0.3657 0.3352 0.8683
vn -0.9523 -0.2860 -0.1065
vn -0.9093 -0.4018 -0.1080
vn -0.7106 -0.6959 -0.1034
vn 0.5787 -0.1611 -0.7995
vn 0.5652 -0.2815 -0.7755
vn 0.4790 -0.5988 -0.6419
vn 0.4164 -0.2442 0.8758
vn 0.4088 -0.3616 0.8379
vn 0.3528 -0.6635 0.6598
usemtl Default_OBJ
s 1
f 1/1/1 2/2/2 3/3/3
f 1/4/4 4/5/5 2/2/6
f 1/6/7 3/7/8 4/5/9
f 5/8/10 6/9/11 7/10/12
f 6/9/13 8/11/14 7/12/15
f 8/11/16 5/13/17 7/14/18
f 2/2/2 6/9/11 5/8/10
f 2/2/2 5/8/10 3/3/3
f 4/5/5 8/11/14 6/9/13
f 4/5/5 6/9/13 2/2/6
f 3/7/8 5/13/17 8/11/16
f 3/7/8 8/11/16 4/5/9
